<svg width="14" height="13" viewBox="0 0 14 13" fill="none" xmlns="http://www.w3.org/2000/svg">
<path d="M0.247276 5.84463L3.47309 7.0486L4.72168 11.0641C4.80157 11.3212 5.11606 11.4163 5.32479 11.2456L7.12291 9.77976C7.3114 9.62619 7.57987 9.61853 7.77684 9.76152L11.02 12.1161C11.2433 12.2784 11.5597 12.1561 11.6157 11.8863L13.9915 0.458233C14.0526 0.163492 13.763 -0.0823901 13.4823 0.0261544L0.243497 5.1333C-0.0832104 5.2593 -0.0803638 5.72185 0.247276 5.84463ZM4.52046 6.4077L10.8249 2.52478C10.9382 2.4552 11.0548 2.6084 10.9575 2.69866L5.75449 7.53509C5.57161 7.70533 5.45363 7.93315 5.42022 8.18043L5.24299 9.49389C5.21951 9.66926 4.97316 9.68666 4.92477 9.51694L4.24312 7.12182C4.16505 6.84864 4.27882 6.55684 4.52046 6.4077Z" fill="#DBC087"/>
</svg>
